# xmcd
#
# Track frame offsets:
#	150
#	10382
#	22412
#	39757
#	55468
#	66485
#	79576
#	98558
#	115264
#	127183
#	136944
#	146430
#	158472
#	167109
#
# Disc length: 2257 seconds
#
# Revision: 1
# Processed by: cddbd v1.4PL0 Copyright (c) Steve Scherf et al.
# Submitted via: audiograbber 1.81.02
#
DISCID=bc08cf0e
DTITLE=Teddy Nelson - Diggy Liggy
DYEAR=1976
DGENRE=Country
TTITLE0=Diggy Liggy
TTITLE1=Bonde ifrå Hamlagrø
TTITLE2=Langs norskekysten
TTITLE3=Dagen derpå
TTITLE4=Norway Jon
TTITLE5=Dans dans
TTITLE6=Jeg og Dag
TTITLE7=Unnskyld
TTITLE8=Deng meg, heng meg
TTITLE9=O'Boy
TTITLE10=Midt i Minnesota
TTITLE11=Bli med på landet
TTITLE12=Onkel Mons
TTITLE13=Takk for oss
EXTD=
EXTT0=
EXTT1=
EXTT2=
EXTT3=
EXTT4=
EXTT5=
EXTT6=
EXTT7=
EXTT8=
EXTT9=
EXTT10=
EXTT11=
EXTT12=
EXTT13=
PLAYORDER=
